<svg width="299" height="120" viewBox="0 0 299 120" fill="none" xmlns="http://www.w3.org/2000/svg">
<path d="M151.88 48.96C151.88 51.7867 151.213 54.4533 149.88 56.96C148.547 59.4667 146.413 61.52 143.48 63.12C140.547 64.6667 136.787 65.44 132.2 65.44H122.12V88H113V32.4H132.2C136.467 32.4 140.067 33.1467 143 34.64C145.987 36.08 148.2 38.0533 149.64 40.56C151.133 43.0667 151.88 45.8667 151.88 48.96ZM132.2 58C135.667 58 138.253 57.2267 139.96 55.68C141.667 54.08 142.52 51.84 142.52 48.96C142.52 42.88 139.08 39.84 132.2 39.84H122.12V58H132.2ZM197.778 64.88C197.778 66.5333 197.671 68.0267 197.458 69.36H163.778C164.045 72.88 165.351 75.7067 167.698 77.84C170.045 79.9733 172.925 81.04 176.338 81.04C181.245 81.04 184.711 78.9867 186.738 74.88H196.578C195.245 78.9333 192.818 82.2667 189.298 84.88C185.831 87.44 181.511 88.72 176.338 88.72C172.125 88.72 168.338 87.7867 164.978 85.92C161.671 84 159.058 81.3333 157.138 77.92C155.271 74.4533 154.338 70.4533 154.338 65.92C154.338 61.3867 155.245 57.4133 157.058 54C158.925 50.5333 161.511 47.8667 164.818 46C168.178 44.1333 172.018 43.2 176.338 43.2C180.498 43.2 184.205 44.1067 187.458 45.92C190.711 47.7333 193.245 50.2933 195.058 53.6C196.871 56.8533 197.778 60.6133 197.778 64.88ZM188.258 62C188.205 58.64 187.005 55.9467 184.658 53.92C182.311 51.8933 179.405 50.88 175.938 50.88C172.791 50.88 170.098 51.8933 167.858 53.92C165.618 55.8933 164.285 58.5867 163.858 62H188.258ZM219.553 88.72C216.086 88.72 212.966 88.1067 210.193 86.88C207.473 85.6 205.313 83.8933 203.713 81.76C202.113 79.5733 201.26 77.1467 201.153 74.48H210.593C210.753 76.3467 211.633 77.92 213.233 79.2C214.886 80.4267 216.94 81.04 219.393 81.04C221.953 81.04 223.926 80.56 225.313 79.6C226.753 78.5867 227.473 77.3067 227.473 75.76C227.473 74.1067 226.673 72.88 225.073 72.08C223.526 71.28 221.046 70.4 217.633 69.44C214.326 68.5333 211.633 67.6533 209.553 66.8C207.473 65.9467 205.66 64.64 204.113 62.88C202.62 61.12 201.873 58.8 201.873 55.92C201.873 53.5733 202.566 51.44 203.953 49.52C205.34 47.5467 207.313 46 209.873 44.88C212.486 43.76 215.473 43.2 218.833 43.2C223.846 43.2 227.873 44.48 230.913 47.04C234.006 49.5467 235.66 52.9867 235.873 57.36H226.753C226.593 55.3867 225.793 53.8133 224.353 52.64C222.913 51.4667 220.966 50.88 218.513 50.88C216.113 50.88 214.273 51.3333 212.993 52.24C211.713 53.1467 211.073 54.3467 211.073 55.84C211.073 57.0133 211.5 58 212.353 58.8C213.206 59.6 214.246 60.24 215.473 60.72C216.7 61.1467 218.513 61.7067 220.913 62.4C224.113 63.2533 226.726 64.1333 228.753 65.04C230.833 65.8933 232.62 67.1733 234.113 68.88C235.606 70.5867 236.38 72.8533 236.433 75.68C236.433 78.1867 235.74 80.4267 234.353 82.4C232.966 84.3733 230.993 85.92 228.433 87.04C225.926 88.16 222.966 88.72 219.553 88.72ZM259.087 88.72C255.621 88.72 252.501 88.1067 249.727 86.88C247.007 85.6 244.847 83.8933 243.247 81.76C241.647 79.5733 240.794 77.1467 240.687 74.48H250.127C250.287 76.3467 251.167 77.92 252.767 79.2C254.421 80.4267 256.474 81.04 258.927 81.04C261.487 81.04 263.461 80.56 264.847 79.6C266.287 78.5867 267.007 77.3067 267.007 75.76C267.007 74.1067 266.207 72.88 264.607 72.08C263.061 71.28 260.581 70.4 257.167 69.44C253.861 68.5333 251.167 67.6533 249.087 66.8C247.007 65.9467 245.194 64.64 243.647 62.88C242.154 61.12 241.407 58.8 241.407 55.92C241.407 53.5733 242.101 51.44 243.487 49.52C244.874 47.5467 246.847 46 249.407 44.88C252.021 43.76 255.007 43.2 258.367 43.2C263.381 43.2 267.407 44.48 270.447 47.04C273.541 49.5467 275.194 52.9867 275.407 57.36H266.287C266.127 55.3867 265.327 53.8133 263.887 52.64C262.447 51.4667 260.501 50.88 258.047 50.88C255.647 50.88 253.807 51.3333 252.527 52.24C251.247 53.1467 250.607 54.3467 250.607 55.84C250.607 57.0133 251.034 58 251.887 58.8C252.741 59.6 253.781 60.24 255.007 60.72C256.234 61.1467 258.047 61.7067 260.447 62.4C263.647 63.2533 266.261 64.1333 268.287 65.04C270.367 65.8933 272.154 67.1733 273.647 68.88C275.141 70.5867 275.914 72.8533 275.967 75.68C275.967 78.1867 275.274 80.4267 273.887 82.4C272.501 84.3733 270.527 85.92 267.967 87.04C265.461 88.16 262.501 88.72 259.087 88.72Z" fill="#EE7626"/>
<circle cx="48" cy="48" r="48" transform="matrix(1 0 0 -1 0 108)" fill="#EE7626"/>
<path d="M36.8482 42.9803C36.9132 42.9324 36.9793 42.907 37.0461 42.9033C36.9798 42.9286 36.9138 42.9543 36.8482 42.9803C35.9999 43.6041 35.325 48.0421 35.325 57.924V81.2374L26.25 89.9995V57.924C26.5603 54.2005 29.1167 46.0462 36.8482 42.9803Z" fill="white"/>
<path d="M44.4008 65.9042V77.3262C53.7887 77.3262 59.3693 70.2331 60.9861 66.6865C54.1016 70.5669 47.0607 67.7818 44.4008 65.9042Z" fill="white"/>
<path d="M58.0133 47.2847C50.1274 39.3989 40.7499 40.9739 37.0469 42.7472C37.4224 39.743 41.5844 36.0192 45.0266 33.9852C58.0133 28.3524 65.8887 36.0714 68.4965 40.2438C76.3824 54.6386 66.984 63.6615 61.2991 66.3736C64.4284 57.6115 60.4124 49.9968 58.0133 47.2847Z" fill="white"/>
</svg>
